<?xml version="1.0" encoding="UTF-8"?>
<svg width="24px" height="24px" viewBox="0 0 24 24" version="1.1" xmlns="http://www.w3.org/2000/svg" xmlns:xlink="http://www.w3.org/1999/xlink">
    <!-- Generator: Sketch 63.1 (92452) - https://sketch.com -->
    <title>Star</title>
    <desc>Created with Sketch.</desc>
    <g id="Final" stroke="none" stroke-width="1" fill="none" fill-rule="evenodd" stroke-linejoin="round">
        <g id="Orders-revamp---List---Alteration" transform="translate(-109.000000, -3034.000000)" fill="#FFFFFF" stroke="#A9ABB3" stroke-width="1.5">
            <g id="Group-17-Copy-189" transform="translate(0.000000, 2866.000000)">
                <g id="Group-9" transform="translate(12.000000, 65.000000)">
                    <g id="Group-5" transform="translate(97.000000, 103.000000)">
                        <g id="Group-10">
                            <path d="M8.64957499,8.14439626 L2.62659266,9.06174247 L2.52460134,9.08470394 C2.00126477,9.24264744 1.81323925,9.95077771 2.22152059,10.3676641 L6.57967892,14.8175842 L5.5514953,21.1032497 L5.54103802,21.2060085 C5.51844259,21.7793049 6.10557194,22.1892429 6.61198774,21.9103536 L12,18.942772 L17.3880123,21.9103536 L17.4780771,21.9525259 C17.9915995,22.1521948 18.5452215,21.6939466 18.4485047,21.1032497 L17.4193466,14.8175842 L21.7784794,10.3676641 L21.8481079,10.2862903 C22.1828704,9.83628528 21.9376383,9.14762578 21.3734073,9.06174247 L15.3494505,8.14439626 L12.6554204,2.42678566 C12.3873179,1.85773811 11.6126821,1.85773811 11.3445796,2.42678566 L8.64957499,8.14439626 Z" id="Path"></path>
                        </g>
                    </g>
                </g>
            </g>
        </g>
    </g>
</svg>